# xmcd
#
# Track frame offsets: 
#        151
#        12054
#        17283
#        28758
#        37762
#        45657
#        54362
#        66188
#        73865
#        84389
#        91606
#        101093
#        111011
#        122174
#        133313
#        143225
#        150034
#        159741
#        167759
#        178823
#        185940
#        195675
#        203589
#        212945
#        220770
#
# Disc length: 3028 seconds
#
# Revision: 0
# Processed by: cddbd v1.5.2PL0 Copyright (c) Steve Scherf et al.
# Submitted via: ExactAudioCopy v0.95b4
#
DISCID=570bd219
DTITLE=Various Artist - Appalachian Bluegrass Legacy
DYEAR=2009
DGENRE=Bluegrass
TTITLE0=Whiskey Before Breakfast
TTITLE1=Black Jack Davy
TTITLE2=The Picture On The Wall
TTITLE3=Down In The Willow Garden
TTITLE4=Black Mountain Rag
TTITLE5=Mountain Dew
TTITLE6=Sitting' On Top Of The World
TTITLE7=Curly Headed Baby
TTITLE8=More Pretty Girls Than One
TTITLE9=Old Joe Clark
TTITLE10=Sophroni
TTITLE11=All The Good Times Are Past And Gone
TTITLE12=Legend Of Uncle Jim
TTITLE13=The Dying Soldier
TTITLE14=Raymond's Talking Banjo
TTITLE15=Six White Horses
TTITLE16=Cotton Eyed Joe
TTITLE17=Watermelon On The Vine
TTITLE18=Diamond In The Rough
TTITLE19=Old Dan Tucker
TTITLE20=Little White Washed Chimney
TTITLE21=Rolling In My Sweet Babys Arms
TTITLE22=Salty Dog Rag
TTITLE23=Red Wing
TTITLE24=Grandfathers Clock
EXTD=
EXTT0=
EXTT1=
EXTT2=
EXTT3=
EXTT4=
EXTT5=
EXTT6=
EXTT7=
EXTT8=
EXTT9=
EXTT10=
EXTT11=
EXTT12=
EXTT13=
EXTT14=
EXTT15=
EXTT16=
EXTT17=
EXTT18=
EXTT19=
EXTT20=
EXTT21=
EXTT22=
EXTT23=
EXTT24=
PLAYORDER=
